<svg xmlns="http://www.w3.org/2000/svg" viewBox="0 0 666.95 1568.07"><g id="Layer_1" data-name="Layer 1"><g id="cXW0vg"><path d="M797.23,509.93c-2.15-82.32-5.87-164.53-15.27-246.39-4.24-36.92-9.65-73.67-19-109.7-6.82-26.14-15.87-51-34.9-71.46C697,49.09,660.5,29.74,615.13,28c-2.78-.11-5.58-.15-8.42-.12l-14.2.12c-83.42.64-166.85.21-250.29,0a352.68,352.68,0,0,0-71.48,7.11c-20,4.07-39.51,9.61-57,20.63C203,62.55,194.79,71.42,191,83.9c-2.85,9.39-6.28,18.63-8.91,28.08-17.74,63.75-27.52,129-34.86,194.57C140,371.33,136,436.35,133.9,501.49c-2.75,83.83-2.08,167.63,1.17,266.68,1.58,30.54,3.82,76.31,6.35,122.06q4.25,76.39,8.76,152.77.87,14.94,1.77,29.89c2.69,45.08,5.39,90.15,8.55,135.2q5.88,83.78,12.62,167.48c2.5,30.54,5.76,61,9.37,91.47,1.67,14.09,5,27.87,8.77,41.7,4.4,16.09,11.45,29.28,23.67,40,16.5,14.46,36.18,23,56.87,29.31,39.71,12.18,80.64,16.34,121.9,16.76,45,.45,89.93.33,134.91,1.06,39.9.66,79.58-2.85,118.56-12,23.48-5.53,46.16-13.22,66.11-27.29,18.5-13,31.59-30,33.59-53.17,4-46.81,7.41-93.68,11-140.53q5.28-69.28,10.4-138.58,5.28-70.53,10.57-141.06,1.47-20.1,2.94-40.21,2.91-40,5.62-80c3.27-48.88,7.46-97.73,9.1-146.67C799.89,714.25,799.88,612.08,797.23,509.93ZM161.49,446.78c1.48-27.95,2.56-55.95,5.34-83.78,3.72-37.11,7.88-74.23,13.75-111,7-44.06,15.67-87.88,24.49-131.62,2.44-12.1,7.3-23.9,12.5-35.16,2.14-4.62,7.65-8.33,12.44-11,15.93-8.8,33.59-12.67,51.24-16.22,41.9-8.42,84.33-12.94,126.94-15.16,43.08-2.25,86.23-4.29,129.36-4.38,40.1-.09,79.79,5.12,118,18.55,17.55,6.18,34.07,14.35,48.36,26.52,10.83,9.23,18.94,20.32,21.53,34.52,5.11,28,10.8,56,14.39,84.17q11.38,89.48,20.72,179.21c4.9,46.38,9.27,92.85,12.59,139.37,3.2,45,.63,90-4.35,134.74A1027.28,1027.28,0,0,1,748.43,775q-3.88,16.61-8.36,33.1c-6.12,22.54-13,44.78-23.94,65.57-.75,1.42-1.55,2.82-2.83,5.13-.38-3.7-.46-6.43-1-9.08-1.57-8.2-6.72-13.24-14.9-14.8-9.41-1.8-18.44.23-26.75,4.16-17.75,8.41-35.27,17.33-52.71,26.36-17.61,9.11-34.87,18.89-52.56,27.81-10.14,5.11-14.7,13.18-15.32,23.89-1.44,25,4.27,48.63,13.65,71.53,1.87,4.57,2.17,4.45,8.94,4.42-21.59,10.85-42.44,21-65.61,25.44a246.94,246.94,0,0,1-38.32,4.47c-3.79.12-7.57.12-11.36,0a150.2,150.2,0,0,1-31.7-4.27c-20.89-5.2-41.1-13.41-61.28-21.17-11.13-4.28-21.56-10.38-32.31-15.67,8.45-19.61,22.44-34,35.12-49.39,7.36-8.9,6-18-4.42-22.88-25.08-11.72-47.6-27.35-69.5-44.06-8.32-6.35-17.78-7-26.94-2.72-8.55,4-16.57,9.22-24.67,14.15-3.84,2.34-4.62,6.35-4.15,10.55.26,2.29.87,4.53.68,7.16-1.31-2.15-2.6-4.31-3.93-6.44-24.15-38.46-38.2-81.11-52.57-123.79q-1.59-4.72-3-9.47c-9.68-32.73-13-66.32-15.44-100.07-2.72-38-3.53-76.23-5.66-114.32S159.48,484.69,161.49,446.78ZM247.2,896.56c6.23-3.83,12.54-7.59,19.09-10.82,3.48-1.72,7.55-2.25,12.38-3.61,4.09,1.74,9.18,2.85,13,5.7,22,16.5,44.43,32.24,69.5,43.92,9.24,4.31,10.36,11.36,3.82,19.27s-13.4,15.72-19.6,24a175.62,175.62,0,0,0-11.71,18.44c-3.26,5.69-6.13,6.92-12.17,4.16a14.88,14.88,0,0,1-3.39-2.07c-22.17-18.18-43.92-36.85-62-59.23A118.26,118.26,0,0,1,241.8,913C237.84,904.75,239.42,901.36,247.2,896.56Zm154.3,436.61c5.24-5.76,11.74-11.22,18.76-14.38,31.07-14,62.61-13.76,93.86-.28a54.9,54.9,0,0,1,14.85,9.9c13.79,12.58,13.47,28.64-.38,41.12-9.82,8.84-21.68,13.63-34.36,16.23-8.93,1.82-18.08,2.53-22.89,3.17-21.32-.46-38-2.76-53-11.19a64.54,64.54,0,0,1-17.23-14C393.17,1354.46,393.27,1342.23,401.5,1333.17Zm.66-120.24a65.93,65.93,0,0,1,20.45-13.81c29-11.83,58.41-11.49,87.56,0,8.6,3.39,16.25,8.43,22,15.91,7.7,10,7.75,21.23,0,31.27-6.73,8.75-16,13.85-26.13,17.66-12.92,4.89-26.4,6.67-40.14,6.83-17.69-.31-34.88-3-50.47-11.91a59,59,0,0,1-13.35-10.3C391.65,1237.62,391.37,1223.48,402.16,1212.93Zm-.88,230.61a49.5,49.5,0,0,1,21.1-15.49c30.29-12.28,60.74-12.39,90.75.57A60,60,0,0,1,532,1442.17c10,10.46,9.51,23.78-.18,34.61-8.64,9.66-19.91,15.12-32.18,18-10.62,2.53-21.55,3.73-32.34,5.51-16.69-1.22-32.89-3.48-47.51-11.41a68.34,68.34,0,0,1-18.58-14.64C393.11,1465.07,393.78,1453.25,401.28,1443.54ZM531,1129.71c-10.72,11.15-24.57,16.29-39.31,19.13-8,1.54-16.14,2-24.22,3-16.07-.58-31.72-2.83-46.1-10a69.65,69.65,0,0,1-18.14-12.89c-10.45-10.61-10.14-24.29-.17-35.39,7.69-8.56,17.61-13.61,28.42-16.85,27.93-8.37,55.58-7.88,82.33,4.31a60.53,60.53,0,0,1,17.37,12.27C542.14,1104.32,541.8,1118.43,531,1129.71Zm-187.45,245.6c-11.29,6.65-23.79,8.15-37.16,8.37-22-.79-43.15-6.39-61.94-19.41-7.19-5-13.41-11-17.56-18.8-6.53-12.38-3.89-24.39,7.38-32.66,11-8,23.76-10.32,36.88-10.49,22.12-.28,43.12,4.73,61.67,17a76.46,76.46,0,0,1,19.44,18.26C362.4,1351.55,358.43,1366.53,343.51,1375.31Zm1.58,109.54c-8.3,5.38-17.61,8-27.33,8.69-29.55,2.19-56.55-4.71-79.64-23.92a50.44,50.44,0,0,1-10.78-13c-7.55-12.67-4.4-25.72,7.81-34,11.64-7.93,24.93-9.7,40.67-9.9,22.85.91,46,7.11,65.59,23.24a56.88,56.88,0,0,1,12,13.85C361.49,1462.9,358,1476.49,345.09,1484.85ZM232.41,1069c9.51-6.56,20.4-9.06,31.64-9.56,26.8-1.18,51.58,5.23,73.06,21.76a58.92,58.92,0,0,1,13.29,14.69c8.35,13,5.11,26.54-7.81,35.12-11.57,7.68-24.7,9.39-39.1,9.53-21.05-.51-41.54-6-60-18.06-7.6-5-14.24-11-18.82-19C217.12,1090.41,220,1077.52,232.41,1069Zm.49,126.81c7.73-6.34,16.92-9.36,26.6-10.51,29.14-3.45,56,2.88,79.7,20.44a59.21,59.21,0,0,1,14.27,15.77c8,12.71,4.71,25.91-7.72,34.36-11.05,7.5-23.68,9.3-36.64,9.77-.67,0-1.33,0-2,0-24-.83-46.57-6.63-65.63-21.82a63.2,63.2,0,0,1-15.21-18.12C220.17,1214.81,223.23,1203.73,232.9,1195.78Zm481.35,250.07a62.59,62.59,0,0,1-12.75,19.4c-22.56,22.58-50.08,34.25-82.14,33.68A58.09,58.09,0,0,1,598.2,1494c-13.14-5.64-18.55-18-13.24-31.33a65.68,65.68,0,0,1,13.46-21.24c21.31-21.8,47.88-32.36,81.5-34.21,4.69,1.08,12.75,2,20.05,4.82C714.76,1417.84,720.49,1431.22,714.25,1445.85ZM585.55,1231.7c4.7-11.64,13-20.47,22.76-27.93,18.71-14.3,39.82-22.69,63.36-24.5,10.41-.8,20.67.26,30.21,5,12.41,6.13,17.33,17.54,13.35,30.84-2.91,9.7-8.94,17.39-16.06,24.32-19,18.52-49.84,31.24-76.12,32.54-7.87-1.86-16.11-2.8-23.53-5.78C584.56,1260.13,579.5,1246.69,585.55,1231.7Zm-.83-117.08a52.41,52.41,0,0,1,14.62-22.33c23.11-21.68,50.39-33.37,82.3-32.17a56.92,56.92,0,0,1,21.88,5.86c11.29,5.45,15.33,16.6,12,28.7-2.35,8.58-7.25,15.66-13.2,22.07-18.84,20.27-51.26,34.4-79,34.48l-.36,1.39c-8.29-2.11-17-3.25-24.79-6.56C585,1140.47,580.34,1128.32,584.72,1114.62Zm.77,235.74a69.63,69.63,0,0,1,12.14-18.68c18.41-20.4,51.39-34.51,78.93-34.58.12-.47.25-.93.37-1.4,8.44,2.24,17.32,3.48,25.21,7,12.71,5.62,17.53,17.67,12.82,30.76-2.21,6.14-5.41,12.43-9.76,17.19-24.55,26.92-55.09,40-91.72,37.39a44.38,44.38,0,0,1-14.35-3.9C584.79,1377.78,579.27,1364.73,585.49,1350.36Zm-11.61-341.27c-4.54,2.06-7.12.89-9-4a196.07,196.07,0,0,1-12.74-59.49c.21-2.66.36-7,.93-11.28,1.07-8.07,4.86-14.12,12.44-18.05,33.26-17.22,66.24-35,99.67-51.87a75.31,75.31,0,0,1,25.21-7.18c13.39-1.49,21.26,6.59,19.43,19.92a77.77,77.77,0,0,1-7.78,24c-10.22,20.2-25.71,36.35-42.33,51.38a359.2,359.2,0,0,1-64.09,46.67C588.75,1003.11,581.14,1005.78,573.88,1009.09Z" transform="translate(-132.18 -27.87)"/><path d="M773.1,520.79c-3.32-46.52-7.69-93-12.59-139.37q-9.48-89.7-20.72-179.21C736.2,174,730.51,146,725.4,118c-2.59-14.2-10.7-25.29-21.53-34.52C689.58,71.35,673.06,63.18,655.51,57c-38.17-13.43-77.86-18.64-118-18.55-43.13.09-86.28,2.13-129.36,4.38-42.61,2.22-85,6.74-126.94,15.16C263.6,61.54,245.94,65.41,230,74.21c-4.79,2.64-10.3,6.35-12.44,11-5.2,11.26-10.06,23.06-12.5,35.16-8.82,43.74-17.46,87.56-24.49,131.62-5.87,36.81-10,73.93-13.75,111-2.78,27.83-3.86,55.83-5.34,83.78-2,37.91-6,75.75-3.85,113.83s2.94,76.27,5.66,114.32c2.42,33.75,5.76,67.34,15.44,100.07q1.39,4.75,3,9.47c14.37,42.68,28.42,85.33,52.57,123.79,1.33,2.13,2.62,4.29,3.93,6.44.19-2.63-.42-4.87-.68-7.16-.47-4.2.31-8.21,4.15-10.55,8.1-4.93,16.12-10.14,24.67-14.15,9.16-4.29,18.62-3.63,26.94,2.72,21.9,16.71,44.42,32.34,69.5,44.06,10.43,4.88,11.78,14,4.42,22.88-12.68,15.36-26.67,29.78-35.12,49.39,10.75,5.29,21.18,11.39,32.31,15.67,20.18,7.76,40.39,16,61.28,21.17a150.2,150.2,0,0,0,31.7,4.27h11.36a246.94,246.94,0,0,0,38.32-4.47c23.17-4.4,44-14.59,65.61-25.44-6.77,0-7.07.15-8.94-4.42-9.38-22.9-15.09-46.57-13.65-71.53.62-10.71,5.18-18.78,15.32-23.89,17.69-8.92,35-18.7,52.56-27.81,17.44-9,35-18,52.71-26.36,8.31-3.93,17.34-6,26.75-4.16,8.18,1.56,13.33,6.6,14.9,14.8.5,2.65.58,5.38,1,9.08,1.28-2.31,2.08-3.71,2.83-5.13,10.91-20.79,17.82-43,23.94-65.57q4.48-16.5,8.36-33.1a1027.28,1027.28,0,0,0,20.32-119.47C773.73,610.74,776.3,565.77,773.1,520.79ZM633.94,823.52c-6.56,5.12-13.6,9.62-20.36,14.47-1.3.93-3.09,2-3.43,3.3-2.59,9.89-9.88,15.58-18,20.5-12.51,7.61-26.25,12.3-40.42,15.49-64.15,14.43-128.19,14.38-192-2.26-12.77-3.34-25-8.16-36-15.76-6.12-4.25-11.34-9.28-13.71-16.67a5.14,5.14,0,0,0-2-2.62c-23.29-14.12-38-35.52-50-59.1-1-2-2-3.91-2.91-5.87-14.68-30.44-23.86-62.76-31.06-95.7-7.59-34.71-11.39-69.95-15.62-105.2-7.14-59.36-3.37-118.45,1.39-177.59,5.7-70.76,15-141.11,25.33-211.32,3.5-23.73,7.41-47.39,11.12-71.09,1.67-10.63,7.78-18.52,15.49-25.51,12.38-11.2,27.44-16.38,43.5-18.43,33.7-4.31,67.41-8.63,101.22-11.76,35.65-3.3,71.41-6.19,107.3-4.11A637.13,637.13,0,0,1,631.7,72.11c14.65,3.67,26.36,12.62,37.61,22.75,14.54,13.09,16,30.81,19.59,47.85,13.6,64.7,19.13,130.42,24.21,196.19,1.34,17.27,1.51,34.73,4.16,51.79,6.35,40.86,2.92,81.81,3.29,119.61-1.45,34.59-2.24,66.09-4.21,97.51-2.66,42.54-12.76,83.83-21.61,125.4A136.22,136.22,0,0,1,678.42,775C667.27,793.71,652,809.43,633.94,823.52Z" transform="translate(-132.18 -27.87)" style="fill:#eaeaea"/><path d="M717.27,390.69c-2.65-17.06-2.82-34.52-4.16-51.79C708,273.13,702.5,207.41,688.9,142.71c-3.58-17-5-34.76-19.59-47.85-11.25-10.13-23-19.08-37.61-22.75A637.13,637.13,0,0,0,513.79,54.29c-35.89-2.08-71.65.81-107.3,4.11C372.68,61.53,339,65.85,305.27,70.16c-16.06,2-31.12,7.23-43.5,18.43-7.71,7-13.82,14.88-15.49,25.51-3.71,23.7-7.62,47.36-11.12,71.09-10.36,70.21-19.63,140.56-25.33,211.32-4.76,59.14-8.53,118.23-1.39,177.59,4.23,35.25,8,70.49,15.62,105.2,7.2,32.94,16.38,65.26,31.06,95.7.94,2,1.92,3.92,2.91,5.87,12,23.58,26.75,45,50,59.1a5.14,5.14,0,0,1,2,2.62c2.37,7.39,7.59,12.42,13.71,16.67,10.95,7.6,23.22,12.42,36,15.76,63.78,16.64,127.82,16.69,192,2.26,14.17-3.19,27.91-7.88,40.42-15.49,8.08-4.92,15.37-10.61,18-20.5.34-1.32,2.13-2.37,3.43-3.3,6.76-4.85,13.8-9.35,20.36-14.47,18-14.09,33.33-29.81,44.48-48.52a136.22,136.22,0,0,0,16.32-41.79c8.85-41.57,19-82.86,21.61-125.4,2-31.42,2.76-62.92,4.21-97.51C720.19,472.5,723.62,431.55,717.27,390.69ZM605.84,845c-4,4.62-7.9,9.59-12.84,12.95-14.85,10.07-31.89,15-49.25,18.51-62,12.42-123.82,12.39-185-4.7-11.68-3.26-22.7-9.31-33.55-15a24.1,24.1,0,0,1-12.87-17.15c14.38-3.61,28.19-7.26,42.09-10.54,44.38-10.49,89.42-11.1,134.64-8.63,28.94,1.58,57.86,3.7,86.3,9.66,9.56,2,18.82,5.44,28.23,8.18C607.61,839.45,608.23,842.2,605.84,845ZM446.54,114.8c1.23-10,4.64-19.91,7.42-29.83.63-2.26,2.51-4.46,4.32-6.57a7.11,7.11,0,0,1,4.34-2.22A6.7,6.7,0,0,1,467,78.32a48.33,48.33,0,0,1,5.91,10c6.12,15.8,7.18,31.85,7.32,49.18C480,152.93,478.92,169.6,472,186a27.24,27.24,0,0,1-4.21,6.88c-1,1.2-3.29,2.1-5,3.13-1.73-1-4.25-1.86-5-3a49.08,49.08,0,0,1-5.88-10.82C444.33,159.84,443.74,137.32,446.54,114.8ZM698,683.93c0,31.41-13.51,52-34.1,52.05q-98.49.06-197,0H271.43c-21.28,0-34.74-20.27-34.74-52.6q-.06-201.4,0-402.82c0-32,13.45-52.53,34.36-52.54q196.21-.06,392.43,0c20.94,0,34.51,20.62,34.51,52.33Q698,482.15,698,683.93Z" transform="translate(-132.18 -27.87)"/></g></g><g id="buttons"><path d="M345.69,1484.06c-8.3,5.38-17.61,8-27.33,8.69-29.55,2.19-56.55-4.71-79.64-23.92a50.44,50.44,0,0,1-10.78-13c-7.55-12.67-4.4-25.72,7.81-34,11.64-7.93,24.93-9.7,40.67-9.9,22.85.91,46,7.11,65.59,23.24A56.88,56.88,0,0,1,354,1449C362.09,1462.11,358.59,1475.7,345.69,1484.06Z" transform="translate(-132.18 -27.87)" style="fill:#f7f7d7"/><path d="M532.38,1476c-8.64,9.66-19.91,15.12-32.18,18-10.62,2.53-21.55,3.73-32.34,5.51-16.69-1.22-32.89-3.48-47.51-11.41a68.34,68.34,0,0,1-18.58-14.64c-8.06-9.21-7.39-21,.11-30.74a49.5,49.5,0,0,1,21.1-15.49c30.29-12.28,60.74-12.39,90.75.57a60,60,0,0,1,18.83,13.55C542.58,1451.84,542.07,1465.16,532.38,1476Z" transform="translate(-132.18 -27.87)" style="fill:#f7f7d7"/><path d="M714.85,1445.06a62.59,62.59,0,0,1-12.75,19.4C679.54,1487,652,1498.71,620,1498.14a58.09,58.09,0,0,1-21.16-4.89c-13.14-5.64-18.55-18-13.24-31.33A65.68,65.68,0,0,1,599,1440.68c21.31-21.8,47.88-32.36,81.5-34.21,4.69,1.08,12.75,2,20.05,4.82C715.36,1417.05,721.09,1430.43,714.85,1445.06Z" transform="translate(-132.18 -27.87)" style="fill:#f7f7d7"/><path d="M715.56,1332.63c-2.21,6.14-5.41,12.43-9.76,17.19-24.55,26.92-55.09,40-91.72,37.39a44.38,44.38,0,0,1-14.35-3.9c-14.34-6.32-19.86-19.37-13.64-33.74a69.63,69.63,0,0,1,12.14-18.68c18.41-20.4,51.39-34.51,78.93-34.58.12-.47.25-.93.37-1.4,8.44,2.24,17.32,3.48,25.21,7C715.45,1307.49,720.27,1319.54,715.56,1332.63Z" transform="translate(-132.18 -27.87)" style="fill:#f7f7d7"/><path d="M344.11,1374.52c-11.29,6.65-23.79,8.15-37.16,8.37-22-.79-43.15-6.39-61.94-19.41-7.19-5-13.41-11-17.56-18.8-6.53-12.38-3.89-24.39,7.38-32.66,11-8,23.76-10.32,36.88-10.49,22.12-.28,43.12,4.73,61.67,17a76.46,76.46,0,0,1,19.44,18.26C363,1350.76,359,1365.74,344.11,1374.52Z" transform="translate(-132.18 -27.87)" style="fill:#f7f7d7"/><path d="M532.79,1245.5c-6.73,8.75-16,13.85-26.13,17.66-12.92,4.89-26.4,6.67-40.14,6.83-17.69-.31-34.88-3-50.47-11.91a59,59,0,0,1-13.35-10.3c-10.45-11-10.73-25.09.06-35.64a65.93,65.93,0,0,1,20.45-13.81c29-11.83,58.41-11.49,87.56,0,8.6,3.39,16.25,8.43,22,15.91C540.47,1224.25,540.52,1235.46,532.79,1245.5Z" transform="translate(-132.18 -27.87)" style="fill:#f7f7d7"/><path d="M716.13,1093.89c-2.35,8.58-7.25,15.66-13.2,22.07-18.84,20.27-51.26,34.4-79,34.48l-.36,1.39c-8.29-2.11-17-3.25-24.79-6.56-13.19-5.59-17.84-17.74-13.46-31.44a52.41,52.41,0,0,1,14.62-22.33c23.11-21.68,50.39-33.37,82.3-32.17a56.92,56.92,0,0,1,21.88,5.86C715.41,1070.64,719.45,1081.79,716.13,1093.89Z" transform="translate(-132.18 -27.87)" style="fill:#f7f7d7"/><path d="M710.46,876.38a77.77,77.77,0,0,1-7.78,24c-10.22,20.2-25.71,36.35-42.33,51.38a359.2,359.2,0,0,1-64.09,46.67c-6.91,3.91-14.52,6.58-21.78,9.89-4.54,2.06-7.12.89-9-4a196.07,196.07,0,0,1-12.74-59.49c.21-2.66.36-7,.93-11.28,1.07-8.07,4.86-14.12,12.44-18,33.26-17.22,66.24-35,99.67-51.87A75.31,75.31,0,0,1,691,856.46C704.42,855,712.29,863.05,710.46,876.38Z" transform="translate(-132.18 -27.87)" style="fill:#f7f7d7"/><path d="M343.19,1130.19c-11.57,7.68-24.7,9.39-39.1,9.53-21-.51-41.54-6-60-18.06-7.6-5-14.24-11-18.82-19-7.51-13.07-4.61-26,7.78-34.51,9.51-6.56,20.4-9.06,31.64-9.56,26.8-1.18,51.58,5.23,73.06,21.76A58.92,58.92,0,0,1,351,1095.07C359.35,1108.11,356.11,1121.61,343.19,1130.19Z" transform="translate(-132.18 -27.87)" style="fill:#f7f7d7"/><path d="M365.56,950.23c-6.57,8-13.4,15.72-19.6,24a175.62,175.62,0,0,0-11.71,18.44c-3.26,5.69-6.13,6.92-12.17,4.16a14.88,14.88,0,0,1-3.39-2.07c-22.17-18.18-43.92-36.85-62-59.23a118.26,118.26,0,0,1-14.29-23.24c-4-8.29-2.38-11.68,5.4-16.48,6.23-3.83,12.54-7.59,19.09-10.82,3.48-1.72,7.55-2.25,12.38-3.61,4.09,1.74,9.18,2.85,13,5.7,22,16.5,44.43,32.24,69.5,43.92C371,935.27,372.1,942.32,365.56,950.23Z" transform="translate(-132.18 -27.87)" style="fill:#f7f7d7"/><path d="M647,1110.28a6,6,0,0,0,1.56,3.87,5.3,5.3,0,0,0,3.92,1.5,5.14,5.14,0,0,0,3.93-1.67,4.54,4.54,0,0,0,1.16-3.18,4.42,4.42,0,0,0-1.5-3.41,6.08,6.08,0,0,0-3.7-1.1,5,5,0,0,0-1.68.24v-6.76a4.92,4.92,0,0,0,4.11-1,3.64,3.64,0,0,0,1.27-2.72,4.31,4.31,0,0,0-1-2.77,4.14,4.14,0,0,0-2.83-1,3.92,3.92,0,0,0-2.78,1,4.89,4.89,0,0,0-1.32,3.41h-9.3a13.71,13.71,0,0,1,3.75-8.84c2.83-2.94,6.47-3.75,10.17-3.75,2.88,0,6.7.58,9.58,3.41a10.44,10.44,0,0,1,3.12,7.45,9.33,9.33,0,0,1-1.15,4.73,6.63,6.63,0,0,1-3,2.95,9.36,9.36,0,0,1,4.56,3.52,9.73,9.73,0,0,1,1.62,5.66,11.57,11.57,0,0,1-3.41,8.43c-2.08,2.08-5.77,4.1-11.49,4.1a15.55,15.55,0,0,1-11-4,15.37,15.37,0,0,1-4.79-10Z" transform="translate(-132.18 -27.87)"/><path d="M284.4,1092.74h-5.48v-8.49h15.47v38.52h-10Z" transform="translate(-132.18 -27.87)"/><path d="M478.73,1214.42H465.39l-.7,4.27a21.75,21.75,0,0,1,3.12-.29c5.14,0,8.38,2,10.17,3.81a12.55,12.55,0,0,1,3.52,9.13,13.43,13.43,0,0,1-3.7,9.64c-3.58,3.7-8.31,4.33-12,4.33a23.46,23.46,0,0,1-13-3.46l1.51-9.36a18.55,18.55,0,0,0,4.62,3.12,14.28,14.28,0,0,0,5.77,1.33,6.93,6.93,0,0,0,5-1.91,5.77,5.77,0,0,0,1.5-3.92,5.41,5.41,0,0,0-1.85-4.16c-2.08-1.85-5.66-1.91-6.93-1.91a15.51,15.51,0,0,0-7.1,1.62l3.35-20.74h20Z" transform="translate(-132.18 -27.87)"/><polyline points="445.32 911.63 445.32 928.63 459.32 928.63" style="fill:none;stroke:#0a0a0a;stroke-linecap:round;stroke-miterlimit:10;stroke-width:7px"/><polyline points="526.32 864.63 541.32 864.63 541.32 880.63" style="fill:none;stroke:#0a0a0a;stroke-linecap:round;stroke-miterlimit:10;stroke-width:7px"/><path d="M307.5,916.5s-12-6-12,12,12,13,12,13" transform="translate(-132.18 -27.87)" style="fill:none;stroke:#0a0a0a;stroke-linecap:round;stroke-miterlimit:10;stroke-width:7px"/><path d="M643.2,1360.62l10.91-13a10.17,10.17,0,0,1-5.14,1.21,12,12,0,0,1-8.83-3.52,12.76,12.76,0,0,1-3.87-9.3,14.13,14.13,0,0,1,3.87-9.93c2.25-2.31,6.18-4.85,12.65-4.85,7.1,0,10.85,3.06,12.35,4.56a13.62,13.62,0,0,1,3.82,9.53c0,5.83-3.53,11.14-5.84,14.15l-8.6,11.14Zm5.25-29.62a6.37,6.37,0,0,0-1.9,4.39,5.93,5.93,0,0,0,1.85,4.15,6.71,6.71,0,0,0,4.5,1.74,6.62,6.62,0,0,0,4.33-1.62,6.48,6.48,0,0,0,2-4.39,6.6,6.6,0,0,0-1.84-4.27,6.81,6.81,0,0,0-4.51-1.85A6.19,6.19,0,0,0,648.45,1331Z" transform="translate(-132.18 -27.87)"/><path d="M668.55,1455.36l-1,6.75h-5.89L660,1472.62h-7.74l1.74-10.51h-4.91l-1.68,10.51h-7.62l1.73-10.51h-5.89l1-6.75h5.83l.81-4.8h-5.83l1-6.7h5.83l1.56-9.76h7.63l-1.62,9.76h4.91l1.56-9.76h7.68l-1.56,9.76h5.77l-1,6.7h-5.78l-.75,4.8Zm-12.76-4.8h-4.91l-.75,4.8H655Z" transform="translate(-132.18 -27.87)"/><path d="M289.57,1327.75H273.51v-8.49H305.1L283,1357.79H272Z" transform="translate(-132.18 -27.87)"/><path d="M475.86,1475.94a15.05,15.05,0,0,1-21.25,0c-3.46-3.41-5.72-9-5.72-15.71s2.26-12.36,5.72-15.77a15.05,15.05,0,0,1,21.25,0c3.47,3.41,5.72,9,5.72,15.77S479.33,1472.53,475.86,1475.94Zm-13.68-25.7c-2.08,1.79-3.35,6.47-3.35,10,0,3.06,1.09,8.08,3.35,10a4.47,4.47,0,0,0,6.12,0c2.14-1.85,3.35-6.7,3.35-10s-1.33-8.31-3.35-10.1a4.47,4.47,0,0,0-6.12,0Z" transform="translate(-132.18 -27.87)"/><path d="M280,1446l-.88-9.81h9.64l-.88,9.81,9.11-3.85,3,9-9.63,2.28,6.48,7.45-7.71,5.61-5.17-8.33-5.08,8.33-7.71-5.61,6.48-7.36-9.64-2.28,3-9.11Z" transform="translate(-132.18 -27.87)"/></g><g id="button8"><path d="M529.19,1368.74c-9.82,8.84-21.68,13.63-34.36,16.23-8.93,1.82-18.08,2.53-22.89,3.17-21.32-.46-38-2.76-53-11.19a64.54,64.54,0,0,1-17.23-14c-8-9.29-7.85-21.52.38-30.58,5.24-5.76,11.74-11.22,18.76-14.38,31.07-14,62.61-13.76,93.86-.28a54.9,54.9,0,0,1,14.85,9.9C543.36,1340.2,543,1356.26,529.19,1368.74Z" transform="translate(-132.18 -27.87)" style="fill:#f7f7d7"/><path d="M477,1346.14A9.32,9.32,0,0,1,480,1353a10.4,10.4,0,0,1-3.11,7.28c-1.33,1.33-4.8,4.1-11.67,4.1-6.58,0-10-2.54-11.49-4a10.69,10.69,0,0,1-3.18-7.34,10.45,10.45,0,0,1,2.83-6.93,12.85,12.85,0,0,1,4.85-2.83,10.46,10.46,0,0,1-3.46-2.19,8.43,8.43,0,0,1-2.6-6.13,10,10,0,0,1,3.17-7.27,15.14,15.14,0,0,1,10.28-3.53,13.72,13.72,0,0,1,9.94,3.7,9.74,9.74,0,0,1,2.83,7,8.12,8.12,0,0,1-2.37,6,10.89,10.89,0,0,1-3.93,2.37A12,12,0,0,1,477,1346.14Zm-15,2.42a4.56,4.56,0,0,0-1.38,3.18A4.49,4.49,0,0,0,462,1355a4.64,4.64,0,0,0,3.29,1.39,4.24,4.24,0,0,0,3.23-1.33,4.37,4.37,0,0,0,1.39-3.29,4.16,4.16,0,0,0-1.39-3.18,4.73,4.73,0,0,0-3.23-1.33A4.91,4.91,0,0,0,462,1348.56Zm.18-16.46a4.43,4.43,0,0,0-1.16,3,4.34,4.34,0,0,0,1.21,2.77,4.18,4.18,0,0,0,3.06,1.27,3.83,3.83,0,0,0,2.83-1.16,4.27,4.27,0,0,0,1.33-2.94,4.33,4.33,0,0,0-1.33-3.06,3.87,3.87,0,0,0-2.77-1.16A4.17,4.17,0,0,0,462.18,1332.1Z" transform="translate(-132.18 -27.87)"/></g><g id="button2"><path d="M531.56,1128.92c-10.72,11.15-24.57,16.29-39.31,19.13-8,1.54-16.14,2-24.22,3-16.07-.58-31.72-2.83-46.1-10a69.65,69.65,0,0,1-18.14-12.89c-10.45-10.61-10.14-24.29-.17-35.39,7.69-8.56,17.61-13.61,28.42-16.85,27.93-8.37,55.58-7.88,82.33,4.31a60.53,60.53,0,0,1,17.37,12.27C542.74,1103.53,542.4,1117.64,531.56,1128.92Z" transform="translate(-132.18 -27.87)" style="fill:#f7f7d7"/><path d="M482.54,1128.45h-30.9l9.76-10.23a63,63,0,0,0,7.91-9.76,10.81,10.81,0,0,0,2.08-6,5.81,5.81,0,0,0-1.15-3.7,3.81,3.81,0,0,0-2.83-1.15,4.12,4.12,0,0,0-3.35,1.56,9.49,9.49,0,0,0-1.39,4.73H452.33a15.33,15.33,0,0,1,4.28-10.68,14.69,14.69,0,0,1,10.91-4.16c5.78,0,9.13,2.25,10.86,4a12.88,12.88,0,0,1,3.75,9.48c0,4.85-2.25,8.2-5.71,11.43l-6.47,6h12.59Z" transform="translate(-132.18 -27.87)"/></g><g id="button4"><path d="M346.35,1255.05c-11.05,7.5-23.68,9.3-36.64,9.77-.67,0-1.33,0-2,0-24-.83-46.57-6.63-65.63-21.82a63.2,63.2,0,0,1-15.21-18.12c-6.1-10.86-3-21.94,6.63-29.89,7.73-6.34,16.92-9.36,26.6-10.51,29.14-3.45,56,2.88,79.7,20.44a59.21,59.21,0,0,1,14.27,15.77C362.09,1233.4,358.78,1246.6,346.35,1255.05Z" transform="translate(-132.18 -27.87)" style="fill:#f7f7d7"/><path d="M299.42,1223.81h4.68v7.68h-4.68v7.28h-9.24v-7.28H271.52v-6.41l14.85-24.83h13.05Zm-9.24,0V1208.1l-9.07,15.71Z" transform="translate(-132.18 -27.87)"/></g><g id="button6"><path d="M715.83,1214.28c-2.91,9.7-8.94,17.39-16.06,24.32-19,18.52-49.84,31.24-76.12,32.54-7.87-1.86-16.11-2.8-23.53-5.78-15-6-20-19.46-14-34.45,4.7-11.64,13-20.47,22.76-27.93,18.71-14.3,39.82-22.69,63.36-24.5,10.41-.8,20.67.26,30.21,5C714.89,1189.57,719.81,1201,715.83,1214.28Z" transform="translate(-132.18 -27.87)" style="fill:#f7f7d7"/><path d="M662.08,1203.1l-11,13.11a13.64,13.64,0,0,1,5.37-1.21,12.54,12.54,0,0,1,12.36,12.88,13.53,13.53,0,0,1-4,10c-3.82,3.81-8.61,4.56-12.31,4.56-6.64,0-10.51-2.48-12.64-4.68a12.59,12.59,0,0,1-3.53-9c0-5.25,2.66-10.34,5.72-14.38l8.61-11.32Zm-5.25,29.69a6.24,6.24,0,0,0,1.79-4.39,5.51,5.51,0,0,0-1.79-4,6.24,6.24,0,0,0-4.45-1.79,6.75,6.75,0,0,0-4.33,1.67,5.68,5.68,0,0,0-1.91,4,6.39,6.39,0,0,0,1.68,4.39,6.3,6.3,0,0,0,4.56,2A6.17,6.17,0,0,0,656.83,1232.79Z" transform="translate(-132.18 -27.87)"/></g><g id="selectButton"><path d="M606.44,844.19c-4,4.62-7.9,9.59-12.84,12.95-14.85,10.07-31.89,15-49.25,18.51-62,12.42-123.82,12.39-185-4.7-11.68-3.26-22.7-9.31-33.55-15a24.1,24.1,0,0,1-12.87-17.15c14.38-3.61,28.19-7.26,42.09-10.54,44.38-10.49,89.42-11.1,134.64-8.63,28.94,1.58,57.86,3.7,86.3,9.66,9.56,2,18.82,5.44,28.23,8.18C608.21,838.66,608.83,841.41,606.44,844.19Z" transform="translate(-132.18 -27.87)" style="fill:#f7f7d7"/><path d="M412.36,862.92s49.36,12.88,92.28,0" transform="translate(-132.18 -27.87)" style="fill:none;stroke:#0a0a0a;stroke-linecap:round;stroke-miterlimit:10;stroke-width:7px"/><path d="M383.23,786.64l4.94-29.15h7.47l5.9,15.56,6.25-15.56h7.56l4.37,29.15h-7.56L410,769.86l-7,16.78h-3l-6.73-16.78-2.49,16.78Z" transform="translate(-132.18 -27.87)" style="fill:#c5eae1"/><path d="M450.79,783a17.42,17.42,0,0,1-23,0,15.25,15.25,0,0,1,0-21.81,17.45,17.45,0,0,1,23,0,15.25,15.25,0,0,1,0,21.81Zm-17.4-16.48a8,8,0,0,0-2.31,5.73,7.42,7.42,0,0,0,2.31,5.42,8.3,8.3,0,0,0,5.9,2.31,7.86,7.86,0,0,0,5.86-13.46,8.73,8.73,0,0,0-5.86-2.31A8.43,8.43,0,0,0,433.39,766.49Z" transform="translate(-132.18 -27.87)" style="fill:#c5eae1"/><path d="M467.74,769.51l9.26-12h9.35L474.77,771.3l12.63,15.34h-9.79L467.74,774v12.63h-7.56V757.49h7.56Z" transform="translate(-132.18 -27.87)" style="fill:#c5eae1"/><path d="M498.32,757.49v29.15h-7.56V757.49Z" transform="translate(-132.18 -27.87)" style="fill:#c5eae1"/><path d="M522.23,781.75H511.65l-2,4.89h-8l11.18-29.15h8.26l11,29.15H524Zm-2-5.77-3.28-9.44L513.75,776Z" transform="translate(-132.18 -27.87)" style="fill:#c5eae1"/></g></svg>